<svg width="245" height="64" viewBox="0 0 245 64" fill="none" xmlns="http://www.w3.org/2000/svg">
<g clip-path="url(#clip0_0_874)">
<rect x="0.5" y="0.5" width="244" height="63" stroke="white"/>
<path d="M54.833 25.78H58.403C59.032 25.78 59.6185 25.865 60.1625 26.035C60.7065 26.205 61.1457 26.4883 61.48 26.885C61.82 27.2817 61.99 27.8228 61.99 28.5085C61.99 28.9675 61.9022 29.3783 61.7265 29.741C61.5508 30.1037 61.327 30.4012 61.055 30.6335C60.783 30.8602 60.4968 31.0047 60.1965 31.067C60.4515 31.0953 60.7122 31.1718 60.9785 31.2965C61.2448 31.4212 61.4913 31.594 61.718 31.815C61.9447 32.036 62.126 32.3137 62.262 32.648C62.4037 32.9823 62.4745 33.3733 62.4745 33.821C62.4745 34.4443 62.3385 34.9968 62.0665 35.4785C61.8002 35.9545 61.4035 36.3285 60.8765 36.6005C60.3552 36.8668 59.7063 37 58.93 37H54.833V25.78ZM56.958 35.283H58.4965C58.9272 35.283 59.27 35.2122 59.525 35.0705C59.7857 34.9288 59.9727 34.7362 60.086 34.4925C60.1993 34.2488 60.256 33.9712 60.256 33.6595C60.256 33.1608 60.0973 32.7783 59.78 32.512C59.4627 32.2457 59.0122 32.1125 58.4285 32.1125H56.958V35.283ZM56.958 30.4295H58.3095C58.6608 30.4295 58.9498 30.3615 59.1765 30.2255C59.4088 30.0838 59.5845 29.8968 59.7035 29.6645C59.8225 29.4265 59.882 29.1687 59.882 28.891C59.882 28.3583 59.7262 27.9928 59.4145 27.7945C59.1085 27.5962 58.692 27.497 58.165 27.497H56.958V30.4295ZM68.3971 31.3815C68.3971 32.0955 68.5444 32.7415 68.8391 33.3195C69.1394 33.8975 69.5502 34.3565 70.0716 34.6965C70.5929 35.0308 71.1964 35.198 71.8821 35.198C72.5677 35.198 73.1712 35.0308 73.6926 34.6965C74.2196 34.3565 74.6304 33.8975 74.9251 33.3195C75.2197 32.7415 75.3671 32.0955 75.3671 31.3815C75.3671 30.6675 75.2197 30.0243 74.9251 29.452C74.6304 28.874 74.2196 28.415 73.6926 28.075C73.1712 27.735 72.5677 27.565 71.8821 27.565C71.1964 27.565 70.5929 27.735 70.0716 28.075C69.5502 28.415 69.1394 28.874 68.8391 29.452C68.5444 30.0243 68.3971 30.6675 68.3971 31.3815ZM66.1871 31.3815C66.1871 30.5655 66.3287 29.8062 66.6121 29.1035C66.9011 28.3952 67.3034 27.7775 67.8191 27.2505C68.3347 26.7235 68.9382 26.3127 69.6296 26.018C70.3266 25.7233 71.0774 25.576 71.8821 25.576C72.6981 25.576 73.4517 25.7233 74.1431 26.018C74.8344 26.3127 75.4351 26.7235 75.9451 27.2505C76.4607 27.7775 76.8602 28.3952 77.1436 29.1035C77.4269 29.8062 77.5686 30.5655 77.5686 31.3815C77.5686 32.2032 77.4297 32.9682 77.1521 33.6765C76.8744 34.3792 76.4806 34.9968 75.9706 35.5295C75.4606 36.0565 74.8599 36.4673 74.1686 36.762C73.4772 37.0567 72.7151 37.204 71.8821 37.204C71.0377 37.204 70.2671 37.0567 69.5701 36.762C68.8787 36.4673 68.2781 36.0565 67.7681 35.5295C67.2637 34.9968 66.8727 34.3792 66.5951 33.6765C66.3231 32.9682 66.1871 32.2032 66.1871 31.3815ZM83.3815 31.3815C83.3815 32.0955 83.5288 32.7415 83.8235 33.3195C84.1238 33.8975 84.5346 34.3565 85.056 34.6965C85.5773 35.0308 86.1808 35.198 86.8665 35.198C87.5521 35.198 88.1556 35.0308 88.677 34.6965C89.204 34.3565 89.6148 33.8975 89.9095 33.3195C90.2041 32.7415 90.3515 32.0955 90.3515 31.3815C90.3515 30.6675 90.2041 30.0243 89.9095 29.452C89.6148 28.874 89.204 28.415 88.677 28.075C88.1556 27.735 87.5521 27.565 86.8665 27.565C86.1808 27.565 85.5773 27.735 85.056 28.075C84.5346 28.415 84.1238 28.874 83.8235 29.452C83.5288 30.0243 83.3815 30.6675 83.3815 31.3815ZM81.1715 31.3815C81.1715 30.5655 81.3131 29.8062 81.5965 29.1035C81.8855 28.3952 82.2878 27.7775 82.8035 27.2505C83.3191 26.7235 83.9226 26.3127 84.614 26.018C85.311 25.7233 86.0618 25.576 86.8665 25.576C87.6825 25.576 88.4361 25.7233 89.1275 26.018C89.8188 26.3127 90.4195 26.7235 90.9295 27.2505C91.4451 27.7775 91.8446 28.3952 92.128 29.1035C92.4113 29.8062 92.553 30.5655 92.553 31.3815C92.553 32.2032 92.4141 32.9682 92.1365 33.6765C91.8588 34.3792 91.465 34.9968 90.955 35.5295C90.445 36.0565 89.8443 36.4673 89.153 36.762C88.4616 37.0567 87.6995 37.204 86.8665 37.204C86.0221 37.204 85.2515 37.0567 84.5545 36.762C83.8631 36.4673 83.2625 36.0565 82.7525 35.5295C82.2481 34.9968 81.8571 34.3792 81.5795 33.6765C81.3075 32.9682 81.1715 32.2032 81.1715 31.3815ZM100.491 31.254L104.877 37H102.335L98.6038 31.985V37H96.4788V25.78H98.6038V30.5825L102.063 25.78H104.469L100.491 31.254ZM118.905 25.78H121.039L125.357 37H123.096L122.22 34.5775H117.732L116.84 37H114.57L118.905 25.78ZM118.429 32.699H121.523L119.985 28.347H119.959L118.429 32.699ZM137.959 27.6585H135.146V25.78H142.889V27.6585H140.084V37H137.959V27.6585ZM149.133 25.78H151.266L155.584 37H153.323L152.448 34.5775H147.96L147.067 37H144.798L149.133 25.78ZM148.657 32.699H151.751L150.212 28.347H150.187L148.657 32.699ZM159.146 25.78H162.716C163.345 25.78 163.931 25.865 164.475 26.035C165.019 26.205 165.458 26.4883 165.793 26.885C166.133 27.2817 166.303 27.8228 166.303 28.5085C166.303 28.9675 166.215 29.3783 166.039 29.741C165.863 30.1037 165.64 30.4012 165.368 30.6335C165.096 30.8602 164.809 31.0047 164.509 31.067C164.764 31.0953 165.025 31.1718 165.291 31.2965C165.557 31.4212 165.804 31.594 166.031 31.815C166.257 32.036 166.439 32.3137 166.575 32.648C166.716 32.9823 166.787 33.3733 166.787 33.821C166.787 34.4443 166.651 34.9968 166.379 35.4785C166.113 35.9545 165.716 36.3285 165.189 36.6005C164.668 36.8668 164.019 37 163.243 37H159.146V25.78ZM161.271 35.283H162.809C163.24 35.283 163.583 35.2122 163.838 35.0705C164.098 34.9288 164.285 34.7362 164.399 34.4925C164.512 34.2488 164.569 33.9712 164.569 33.6595C164.569 33.1608 164.41 32.7783 164.093 32.512C163.775 32.2457 163.325 32.1125 162.741 32.1125H161.271V35.283ZM161.271 30.4295H162.622C162.973 30.4295 163.262 30.3615 163.489 30.2255C163.721 30.0838 163.897 29.8968 164.016 29.6645C164.135 29.4265 164.195 29.1687 164.195 28.891C164.195 28.3583 164.039 27.9928 163.727 27.7945C163.421 27.5962 163.005 27.497 162.478 27.497H161.271V30.4295ZM170.976 25.78H173.101V35.1215H177.308V37H170.976V25.78ZM181.56 25.78H188.521V27.6585H183.668V30.4635H188.453V32.2825H183.668V35.1215H188.521V37H181.56V25.78Z" fill="white"/>
</g>
<defs>
<clipPath id="clip0_0_874">
<rect width="245" height="64" fill="white"/>
</clipPath>
</defs>
</svg>
